<svg xmlns="http://www.w3.org/2000/svg" xmlns:xlink="http://www.w3.org/1999/xlink" width="159.611" height="27.396" viewBox="0 0 159.611 27.396">
  <defs>
    <clipPath id="clip-path">
      <path id="Caminho_73" data-name="Caminho 73" d="M198.72,32c30.3.3,52.57,7.519,55.214,14.993,2.038,5.741-4.127,9.684-10.749,12.4,8.661-2.881,13.852-6.6,13.908-10.666v-.111C256.976,39.438,232.858,32,200.274,32H198.72" transform="translate(-198.72 -32)" fill="none"/>
    </clipPath>
    <radialGradient id="radial-gradient" cx="0.503" cy="0.521" r="1.059" gradientTransform="translate(-1.332 2.55) scale(0.475 0.475)" gradientUnits="objectBoundingBox">
      <stop offset="0" stop-color="#ffef60"/>
      <stop offset="0.13" stop-color="#ffef60"/>
      <stop offset="0.29" stop-color="#fff"/>
      <stop offset="0.48" stop-color="#ffeb00"/>
      <stop offset="0.49" stop-color="#fab900"/>
      <stop offset="0.7" stop-color="#ffeb00"/>
      <stop offset="0.78" stop-color="#ffe800"/>
      <stop offset="0.84" stop-color="#fdde00"/>
      <stop offset="0.89" stop-color="#fbce00"/>
      <stop offset="0.94" stop-color="#f7b600"/>
      <stop offset="0.99" stop-color="#f39900"/>
      <stop offset="1" stop-color="#f29100"/>
    </radialGradient>
  </defs>
  <g id="Grupo_86" data-name="Grupo 86" transform="translate(0 -16.115)">
    <path id="Caminho_65" data-name="Caminho 65" d="M12.12,57.413a1.632,1.632,0,0,0-3.057,0L3.291,69.107H0L6.027,56.783c.922-1.914,2.038-3.263,4.585-3.263s3.612,1.35,4.585,3.263l6,12.323H17.887Z" transform="translate(0 -26.566)" fill="#2d4694"/>
    <path id="Caminho_66" data-name="Caminho 66" d="M38.75,53.93h3.057v7.957c0,3.686,1.228,4.533,6.047,4.533s6.027-.831,6.027-4.533V53.93h3.057v7.957c0,5.54-2.5,7.645-9.1,7.645s-9.084-2.09-9.084-7.645Z" transform="translate(-19.009 -26.771)" fill="#2d4694"/>
    <path id="Caminho_67" data-name="Caminho 67" d="M83.256,69.305V56.826H75.94V53.92H93.654v2.906H86.333V69.305Z" transform="translate(-37.252 -26.766)" fill="#2d4694"/>
    <path id="Caminho_68" data-name="Caminho 68" d="M130.233,61.4c0,5.958-3.317,7.912-10.332,7.912S109.57,67.339,109.57,61.4s3.317-7.917,10.332-7.917,10.332,1.954,10.332,7.917m-3.143,0c0-4.3-2.369-4.88-7.188-4.88s-7.188.584-7.188,4.88,2.369,4.875,7.188,4.875,7.209-.584,7.209-4.875" transform="translate(-53.749 -26.547)" fill="#2d4694"/>
    <path id="Caminho_69" data-name="Caminho 69" d="M168.288,53.93l-5.854,12.344c-.907,1.909-2.089,3.258-4.611,3.258s-3.7-1.35-4.585-3.258L147.38,53.93h3.373l5.553,11.513a1.642,1.642,0,0,0,3.057,0L164.92,53.93Z" transform="translate(-72.297 -26.771)" fill="#2d4694"/>
    <path id="Caminho_70" data-name="Caminho 70" d="M192.992,56.987c-2.884,0-3.744,1.148-3.958,3.193H204.4V63.06h-15.37c.214,2.014,1.075,3.168,3.958,3.168h11.666V69.31H192.992c-5.273,0-7.1-2.634-7.1-7.69s1.829-7.69,7.1-7.69h11.666v3.057Z" transform="translate(-91.188 -26.771)" fill="#2d4694"/>
    <path id="Caminho_71" data-name="Caminho 71" d="M228.711,57.324V69.31H225.7V53.93h2.991a2.415,2.415,0,0,1,2.089,1.194l6.113,7.841,6.113-7.841a2.415,2.415,0,0,1,2.089-1.194h2.991V69.31h-3.016V57.324l-6.99,8.813h-2.364Z" transform="translate(-110.717 -26.771)" fill="#2d4694"/>
    <path id="Caminho_72" data-name="Caminho 72" d="M274.031,69.107H270.74l6.027-12.323c.927-1.914,2.038-3.263,4.585-3.263s3.612,1.35,4.585,3.263l6.042,12.344h-3.311L282.86,57.413a1.632,1.632,0,0,0-3.057,0Z" transform="translate(-132.811 -26.566)" fill="#2d4694"/>
    <g id="Grupo_5" data-name="Grupo 5" transform="translate(101.238 16.115)" clip-path="url(#clip-path)">
      <rect id="Retângulo_37" data-name="Retângulo 37" width="58.373" height="27.412" transform="translate(0 -0.015)" fill="url(#radial-gradient)"/>
    </g>
  </g>
</svg>
